<svg xmlns="http://www.w3.org/2000/svg" viewBox="0 0 2400 1350"><path d="M1184.7 223.6c-27.1 6.1-48.3 26.5-55.4 53.4-2.4 9.5-2.2 26.2.6 36.3 6.9 25.2 27.1 45.1 52 51.2 7.1 1.7 7.1 1.7 7.1 5.1 0 3-.3 3.4-2.7 3.4-10.1 0-51.7-4.8-71.3-8.1-35-5.9-56.4-13-80.5-26.4-13.2-7.4-33.3-13.6-54-16.6-11.5-1.7-44.7-1.7-54.5 0-26 4.4-43 9.5-61.1 18.2-21.3 10.3-32.9 18.7-54.9 39.4-15.8 14.9-28.5 24.1-42.1 30.3-4.8 2.2-9.5 5.2-10.7 6.7-5 6.3-1 16.3 7.1 17.9 6 1.2 26.9-9.1 42.6-21.2 4-3.1 12.6-10.6 19-16.7s14.8-13.5 18.6-16.6c29.9-23.5 68-36.1 109.5-36.1 29.2 0 50.3 4.8 71 16 14 7.6 18.5 9.7 31.5 14.4 25.6 9.2 69.5 17.5 110.5 20.8 7.4.6 15.4 1.3 17.8 1.6l4.2.5V501c0 57.1-.3 104.1-.7 104.3-1.1.6-36.7-1.9-54.8-3.8-37.5-4-61.3-12-75.8-25.4-10.5-9.8-15.7-20.2-17.8-36.1-4-29.4 11.6-52.6 43.1-64.1 14.8-5.3 38.2-9.8 51.7-9.9 4.4 0 5.8-.5 8.7-3.1 6.2-5.4 5.5-14.2-1.6-18.3-2.7-1.7-4.5-1.8-14.2-1.3-37.4 2.1-69.7 14.1-89.1 33.2-16.7 16.4-23.5 34.8-22.2 59.5 2.1 38.7 24.2 65.8 64.3 78.9 7.8 2.5 28 7.2 36.4 8.3 2.1.3 1.6.8-3.8 3.6-16.4 8.5-28.3 17.4-37.7 28.2-14.8 17.2-20.8 37.6-17.1 58.6 3.3 19.3 12.1 34.6 30.6 53.5 17 17.3 34.5 28.5 57.7 36.9 3.5 1.2 6 2.6 5.8 3.1-.3.4-2.2 1.3-4.3 2-5.8 1.8-19.2 8.7-24.2 12.4-10.8 7.9-18.2 18-22.8 30.8-2.3 6.5-2.6 8.7-2.6 22.7-.1 16.1.6 21.1 5 35.9 5.1 17 13.2 31.6 26.2 47.2 8 9.6 10.7 11.4 16.4 11.3 6.8-.2 12.4-7.9 10.3-14.3-.3-1.1-3.6-5.6-7.2-9.8-15.6-18.3-23.1-34.2-26.8-56.3-4.6-27 2.8-43.3 23.9-53.5 5-2.4 11.9-5.3 15.3-6.4 6.4-2.2 24.9-7.1 26.4-7.1.5 0 .9 32.7.9 77.1v77.1l3.4 3.4c2.9 2.9 4.1 3.4 8.1 3.4s5.2-.5 8.1-3.4l3.4-3.4v-77.1c0-63.5.2-77.1 1.3-77.1.8 0 7 1.6 14 3.5 32.3 8.8 45.7 18 50.9 34.9 1.8 5.9 2 8.5 1.5 18.5-1.1 24.7-9.8 45.6-27 65.3-7.5 8.7-8.7 10.6-8.7 14.7 0 6.9 4.6 11.1 12.2 11.1 4.1 0 4.7-.4 11.4-7.5 24.6-25.8 38.6-63.8 35.3-96.2-2.9-28.1-19.7-46.6-53.4-58.7-1.6-.6-.1-1.5 6.5-4 21.4-8.2 40.7-20.3 55.1-34.6 32.3-32.1 41.2-67.5 24.9-98.9-9-17.2-22.6-29.8-46-42.5l-7.5-4.1 7.5-1.3c64-10.9 95.1-40.8 95.1-91.6 0-13.8-2.1-23.1-7.7-34.6-10.4-21.1-34.1-38.2-64.5-46.4-13.7-3.7-25.8-5.6-39.6-6.3l-12.2-.6-3.6 3.6c-2.9 2.9-3.5 4.2-3.5 7.9 0 7.3 5 11.8 12.9 11.8 2.2 0 9.1.7 15.4 1.5 59.3 7.8 87.1 35.8 78.2 78.7-7 33.4-34.4 49.2-96.5 55.8-14.4 1.5-50.3 3.8-51.2 3.3-.5-.2-.8-47.2-.8-104.3V397l2.3-.4c1.2-.3 6.3-.8 11.2-1.1 14.5-.9 42.8-4.4 59-7.1 39.2-6.6 63.9-14.3 87.4-27.2 12.9-7.1 16.1-8.5 27.3-11.6 39.4-11.2 89.6-6.3 127.2 12.6 18.3 9.2 26.7 15.2 44.1 31.7 13.5 12.9 20.6 18.7 29.8 25 8.4 5.7 21.2 12.3 28.4 14.6 4.5 1.5 5.4 1.5 8.6.2 4.5-1.9 7-5.7 7-10.6 0-5.9-3-9.1-12-13.1-16-7-26.9-14.9-46.3-33.5-6.3-6.1-14.4-13.3-18-16-48.6-37.5-117.9-50.1-178.3-32.3-9.2 2.7-17.1 6.2-30.7 13.4-14.6 7.8-27.5 12.6-46.8 17.5-21.8 5.4-61.5 11.3-91 13.4l-9.3.7.3-3.8c.3-3.7.4-3.8 5.9-5 23.5-5.3 45-26.8 51.6-51.4 1.3-4.7 1.8-10.1 1.7-19.5 0-11.3-.4-14-2.7-21-3.8-11.5-9.1-19.9-18.2-29-14.1-14.1-28.3-20.3-48-21.1-7.6-.2-13.1.1-17.8 1.2m30.4 24.5c11.6 3.3 23.1 13.4 28.9 25.4 12.7 26.1-1 58-29.1 67.5-7.9 2.7-20.8 3-28.9.6-15.7-4.6-28.4-17.2-33.2-32.9-1.7-5.7-2-8.7-1.6-17.1.4-9.2.8-10.9 4.2-18 10.9-22.5 34.7-32.8 59.7-25.5m-26.3 463.7c.1 44.8-.2 80.2-.7 80.2-.4 0-7.3-1.8-15.2-4.1-39.6-11.1-64.4-27.6-81.7-54.3-11.7-18-13.7-35.5-5.9-51.5 4.4-9.2 18.3-23 29.6-29.6 16.9-9.8 35.3-16.3 54.3-19 14.7-2.1 16.1-2.2 17.8-2.1 1.3.1 1.5 9.9 1.8 80.4m43.1-78.2c19.1 2.6 38.1 9.1 53.3 18.1 40.9 24.3 46.8 58.2 16.4 93.5-17.6 20.4-38.6 32.8-71.1 42.1-6.6 1.9-13.5 3.8-15.2 4.2l-3.3.7v-80c0-43.9.3-80.2.7-80.5.3-.4 2.2-.5 4.2-.2s8.7 1.2 15 2.1"/><path d="M968.4 393.9c-4 2.5-4.1 2.7-6.5 11.4-5.8 20.9-21.1 40.8-44.7 58.3-9 6.6-11.2 9.5-11.2 14.9 0 2.9.8 4.5 3.4 7.1 2.8 2.8 4.1 3.4 7.8 3.4 5 0 10.3-3.2 23.8-14.6 24.9-20.8 43.8-50.5 44.3-69.6.2-5.2-.1-6-2.9-8.8-4-4.1-9.6-4.9-14-2.1m450.9.1c-1.7 1-3.7 2.8-4.2 3.9-3.1 5.6.5 20 8.6 35.1 10.3 19 27.8 38 47.4 51.2 9.1 6.2 13.4 6.5 18.5 1.4 3.8-3.8 4.3-5.8 2.9-12.3-.3-1.4-4.5-5.3-10.8-10-24-18.2-39.5-38.7-44.4-58.6-2.7-11.2-10-15.6-18-10.7m-508.1 6.7c-2.5 1.2-4.2 3.4-6.9 8.7-9.9 19.9-26.8 35.1-54.8 49.3-7.5 3.8-11.9 6.6-12.9 8.4-3.7 6.3-.6 14.9 6.2 16.9 3.5 1.1 4.5.9 11.3-1.9 9.8-4.1 23.2-11.7 33.1-18.8 17-12.1 34.8-33.1 39.2-46.5 1.8-5 1.8-6 .5-9.3-2.5-6.7-9.7-9.8-15.7-6.8m569.3-.9c-3.1 1.1-5 2.5-6.8 5.2-7.6 11.1 14.2 42.2 43.1 61.4 11.3 7.5 30.1 17.2 35.2 18.1 7.5 1.3 14.1-6.6 12-14.4-1.3-5-2.4-5.8-16-12.6-15-7.5-24.5-14-34.7-23.8-8.6-8.2-15.5-17.6-19.1-25.9-2.8-6.4-8.5-9.7-13.7-8M1282 1095.5c0 19.4.1 20.5 1.9 20.5 1.7 0 1.9-1 2.3-10.4.4-12.5 1.6-14.6 8.3-14.6 2.2 0 4.6.5 5.3 1.2.8.8 1.2 5 1.2 12.5v11.3h5.2l-.4-12c-.3-10.6-.5-12.2-2.4-14.1-3.3-3.2-10.7-3.8-14.5-1l-2.9 2.2v-8.1c0-7.3-.2-8-2-8-1.9 0-2 .7-2 20.5m-23.7-17.4c-4.8 1.4-7.6 5.5-7 10.2.7 5.1 2.1 6.5 9.7 9.9 7 3.1 9 5 9 8.3 0 4.9-6.1 7-15.7 5.2-3.4-.6-4.3-.4-4.3.7 0 2.2 2.1 3.3 7.5 4 9.6 1.3 17-3.6 16.8-11-.1-4.7-2.4-7-11-11-7-3.1-7.3-3.4-7.3-6.7 0-1.9.6-4 1.4-4.6 1.8-1.5 6.8-1.8 11.9-.8 3.3.7 3.7.6 3.7-1.1 0-1.1-.6-2.2-1.4-2.5-3.1-1.2-10.3-1.5-13.3-.6M1043 1097c0 18.3.1 19 2 19s2-.7 2-15.7v-15.8l10.3 15.8c9.1 14 10.5 15.7 13 15.7h2.7v-38h-5.2l.4 15.5c.2 8.5.3 15.5.2 15.5s-4.8-7-10.3-15.5c-8.6-13-10.6-15.5-12.6-15.5h-2.5zm305.2-13.1c-.6 1.6-2 3.4-3.1 4.1-2.6 1.3-2.7 3-.2 3 1.7 0 1.9 1 2.3 10.5.4 13.1 2 15.2 11.1 14.6 2.4-.1 2.1-3.1-.4-3.1-1.1 0-2.9-.5-4-1-1.7-1-1.9-2.2-1.9-11v-10h4c3.3 0 4-.3 4-2s-.7-2-4-2c-3.8 0-4-.2-4-3 0-3.9-2.5-4-3.8-.1m-266.2 14c0 12 .8 15.4 4 17.1 3.1 1.7 10.7 1.4 13.5-.4 2.2-1.5 2.5-1.5 2.5-.1 0 .8.9 1.5 2 1.5 1.9 0 2-.7 2-14.5 0-13.5-.1-14.5-1.9-14.5-1.7 0-1.9 1-2.3 10.4-.4 11.5-1.5 13.9-6.9 15.1-6.9 1.5-8.9-2.1-8.9-16.8 0-8-.2-8.7-2-8.7-1.9 0-2 .7-2 10.9m33 3.6v14.5h2.5c2.5 0 2.5 0 2.5-9.9 0-9.2.2-10 2.6-12.4 1.4-1.4 4-2.7 5.7-2.9 2.1-.2 3.3-.9 3.5-2.1.6-2.8-6-2.3-9.7.9l-3.1 2.6v-2.6c0-1.9-.5-2.6-2-2.6-1.9 0-2 .7-2 14.5m24.3-13.3c-1.2.6-2.7 2.3-3.3 3.9-1.8 4.2.7 7.3 8.6 11.1 5.2 2.5 6.4 3.5 6.4 5.5 0 3.9-7.4 5.4-14.4 2.7-1.1-.4-1.6 0-1.6 1.4 0 2.3 2.5 3.2 9.2 3.2 6.2 0 9.5-1.6 10.7-5.2 1.6-4.6-.6-7.6-8-11.2-5.3-2.6-6.4-3.5-6.4-5.6 0-2.4.2-2.5 6.7-2.4 4.8 0 6.9-.3 7.2-1.3 1.1-2.9-10.2-4.5-15.1-2.1m23.7 13.3c0 13.8.1 14.5 2 14.5s2-.7 2-14.5-.1-14.5-2-14.5-2 .7-2 14.5m13 0v14.5h2.5c2.5 0 2.5 0 2.5-9.6 0-12.7 1.4-15.4 8.2-15.4 5.7 0 6.8 2.4 6.8 14.7 0 9.6.1 10.3 2 10.3s2-.7 2-11.9c0-14.2-.9-16-8.2-16.8-3.6-.4-5.5-.1-8.3 1.5-3.4 2.1-3.5 2.1-3.5.2 0-1.3-.7-2-2-2-1.9 0-2 .7-2 14.5m35.1-11.9c-3.8 3.2-4.3 8.6-1 12.8 2 2.6 2 2.8.4 4.7-1.5 1.5-1.6 2.4-.7 4.3.9 2.1.8 2.7-1.4 4-3.3 2.3-3.5 8.9-.1 11 8.6 5.5 23.7 1.2 23.7-6.8 0-4.9-2.9-7.3-9.7-8.1-3.2-.3-6.5-.7-7.3-.8s-1.5-.8-1.5-1.6c0-1.8 2-2.8 6.9-3.6 5.7-.9 8.8-4.8 8.4-10.5-.3-4.1-.1-4.5 2-4.8 1.3-.2 2.1-.9 1.9-1.5-.2-.8-3.6-1.3-9.4-1.5-8.5-.3-9.2-.1-12.2 2.4m12 2.5c1.6 1.6 2 2.8 1.5 5.2-.8 3.7-2 4.7-6.3 4.7-5.9 0-8.4-5.9-4.3-10 2.6-2.6 6.5-2.5 9.1.1m2.3 23.9c3.2 1.2 3.4 4.2.6 7-1.5 1.5-3.3 2-7.8 2-6.2 0-8.2-1.1-8.2-4.6 0-4.6 8.6-7 15.4-4.4m93.1-26.8c-3.3 2.6-5.5 7.5-5.5 12.3 0 8.7 5.3 14.5 13.2 14.5 8.5 0 12.8-4.7 12.8-14 0-9.7-4.7-15-13.3-15-3 0-5.3.7-7.2 2.2m12.5 2.8c2.6 1.4 4.3 7.3 3.5 12.5-1.1 7.9-8.9 11.2-14 6-2.1-2-2.5-3.4-2.5-8.8 0-5 .4-6.8 2-8.5 2.2-2.4 7.7-3 11-1.2"/></svg>
